<svg width="24" height="22" viewBox="0 0 24 22" fill="none" xmlns="http://www.w3.org/2000/svg">
<circle cx="12" cy="11" r="9" fill="white"/>
<path d="M13.2333 16.5C12.6333 16.5 12.1278 16.3116 11.7167 15.9347C11.3056 15.5579 11.1 15.1046 11.1 14.575C11.1 13.8009 11.4417 13.1007 12.125 12.4743C12.8083 11.8479 13.6611 11.4583 14.6833 11.3056C14.65 10.9389 14.55 10.6613 14.3833 10.4729C14.2167 10.2845 13.9889 10.1903 13.7 10.1903C13.3667 10.1903 13.0056 10.3176 12.6167 10.5722C12.2278 10.8269 11.7667 11.2444 11.2333 11.825C10.3667 12.7722 9.73056 13.3884 9.325 13.6736C8.91944 13.9588 8.48333 14.1014 8.01667 14.1014C7.45 14.1014 6.97222 13.9079 6.58333 13.5208C6.19444 13.1338 6 12.6653 6 12.1153C6 11.5653 6.13056 11.0025 6.39167 10.4271C6.65278 9.85162 7.09444 9.16157 7.71667 8.35694C7.92778 8.09213 8.08333 7.86806 8.18333 7.68472C8.28333 7.50139 8.33333 7.3537 8.33333 7.24167C8.33333 7.17037 8.31944 7.1169 8.29167 7.08125C8.26389 7.0456 8.22222 7.02778 8.16667 7.02778C8.05556 7.02778 7.91667 7.09144 7.75 7.21875C7.58333 7.34606 7.38889 7.54213 7.16667 7.80694L6 6.72222C6.35556 6.325 6.71667 6.02199 7.08333 5.81319C7.45 5.6044 7.81111 5.5 8.16667 5.5C8.67778 5.5 9.11111 5.66296 9.46667 5.98889C9.82222 6.31481 10 6.72222 10 7.21111C10 7.50648 9.91667 7.83241 9.75 8.18889C9.58333 8.54537 9.30556 8.97315 8.91667 9.47222C8.49444 10.0222 8.18056 10.506 7.975 10.9236C7.76944 11.3412 7.66667 11.7079 7.66667 12.0236C7.66667 12.1968 7.69722 12.3317 7.75833 12.4285C7.81944 12.5252 7.90556 12.5736 8.01667 12.5736C8.12778 12.5736 8.225 12.5456 8.30833 12.4896C8.39167 12.4336 8.54444 12.2986 8.76667 12.0847C8.91111 11.9421 9.08333 11.7664 9.28333 11.5576C9.48333 11.3488 9.72778 11.0917 10.0167 10.7861C10.7167 10.0222 11.35 9.47731 11.9167 9.15139C12.4833 8.82546 13.0778 8.6625 13.7 8.6625C14.4444 8.6625 15.0556 8.89167 15.5333 9.35C16.0111 9.80833 16.2833 10.4347 16.35 11.2292H18V12.7569H16.35C16.2611 13.8977 15.9361 14.8067 15.375 15.484C14.8139 16.1613 14.1 16.5 13.2333 16.5ZM13.2667 14.9722C13.6222 14.9722 13.9222 14.7863 14.1667 14.4146C14.4111 14.0428 14.5778 13.5259 14.6667 12.8639C14.1556 12.9759 13.7111 13.1975 13.3333 13.5285C12.9556 13.8595 12.7667 14.188 12.7667 14.5139C12.7667 14.6565 12.8111 14.7685 12.9 14.85C12.9889 14.9315 13.1111 14.9722 13.2667 14.9722Z" fill="#1F17FF"/>
</svg>
